#N canvas 293 223 561 335 10;
#X obj 213 193 np_nifalcon;
#X msg 92 22 open;
#X msg 143 64 close;
#X msg 66 2 count;
#X text 112 2 print count of devices to pd window;
#X text 131 22 open device;
#X text 214 40 send firmware;
#X msg 184 111 stop;
#X msg 165 87 start;
#X msg 131 127 raw;
#X obj 475 161 tgl 15 0 empty empty empty 17 7 0 10 -262144 -1 -1 1
1;
#X obj 475 138 loadbang;
#X msg 88 107 vector;
#X obj 305 231 tgl 15 0 empty empty empty 17 7 0 10 -262144 -1 -1 0
1;
#X obj 35 257 unpack 0 0 0;
#X obj 157 257 unpack 0 0 0;
#X obj 288 256 unpack 0 0 0 0;
#X floatatom 35 288 5 0 0 0 - - -;
#X floatatom 75 289 5 0 0 0 - - -;
#X floatatom 116 290 5 0 0 0 - - -;
#X floatatom 158 290 5 0 0 0 - - -;
#X floatatom 197 290 5 0 0 0 - - -;
#X floatatom 237 290 5 0 0 0 - - -;
#X obj 289 289 tgl 15 0 empty empty empty 17 7 0 10 -262144 -1 -1 0
1;
#X obj 320 289 tgl 15 0 empty empty empty 17 7 0 10 -262144 -1 -1 0
2;
#X obj 352 289 tgl 15 0 empty empty empty 17 7 0 10 -262144 -1 -1 0
4;
#X obj 383 289 tgl 15 0 empty empty empty 17 7 0 10 -262144 -1 -1 0
8;
#X obj 210 150 pack 0 0 0;
#X obj 290 150 pack 0 0 0;
#X obj 435 114 tgl 15 0 empty empty empty 17 7 0 10 -262144 -1 -1 0
1;
#X obj 401 114 tgl 15 0 empty empty empty 17 7 0 10 -262144 -1 -1 0
1;
#X obj 367 113 tgl 15 0 empty empty empty 17 7 0 10 -262144 -1 -1 0
1;
#X obj 374 150 pack 0 0 0;
#X msg 118 42 nvent_firmware;
#X msg 74 168 show_ioerror;
#X text 25 310 raw encoder values;
#X text 162 313 x/y/z position;
#X text 292 308 button status;
#X text 331 228 homing status;
#X text 367 97 leds (r \, g \, b);
#X text 476 116 homing;
#X floatatom 318 111 5 0 0 0 - - -;
#X floatatom 304 91 5 0 0 0 - - -;
#X floatatom 329 129 5 0 0 0 - - -;
#X floatatom 244 105 5 0 0 0 - - -;
#X floatatom 234 83 5 0 0 0 - - -;
#X floatatom 255 125 5 0 0 0 - - -;
#X text 207 64 raw force;
#X text 273 70 kinematic force;
#X text -3 89 force input selection;
#X text -1 150 show io errors (spammy);
#X connect 0 1 14 0;
#X connect 0 2 15 0;
#X connect 0 3 16 0;
#X connect 0 5 13 0;
#X connect 1 0 0 0;
#X connect 2 0 0 0;
#X connect 3 0 0 0;
#X connect 7 0 0 0;
#X connect 8 0 0 0;
#X connect 9 0 0 0;
#X connect 10 0 0 4;
#X connect 11 0 10 0;
#X connect 12 0 0 0;
#X connect 14 0 17 0;
#X connect 14 1 18 0;
#X connect 14 2 19 0;
#X connect 15 0 20 0;
#X connect 15 1 21 0;
#X connect 15 2 22 0;
#X connect 16 0 23 0;
#X connect 16 1 24 0;
#X connect 16 2 25 0;
#X connect 16 3 26 0;
#X connect 27 0 0 1;
#X connect 28 0 0 2;
#X connect 29 0 32 2;
#X connect 30 0 32 1;
#X connect 31 0 32 0;
#X connect 32 0 0 3;
#X connect 33 0 0 0;
#X connect 34 0 0 0;
#X connect 41 0 28 1;
#X connect 42 0 28 0;
#X connect 43 0 28 2;
#X connect 44 0 27 1;
#X connect 45 0 27 0;
#X connect 46 0 27 2;
